<svg width="190" height="98" viewBox="0 0 190 98" fill="none" xmlns="http://www.w3.org/2000/svg">
<path d="M0.436531 63.71L0 63.3826C0.0818495 63.2735 8.07036 52.6658 19.4365 45.0865C24.3857 41.7853 34.5241 35.9739 46.8288 34.1296C56.7545 32.6399 65.9762 33.1965 74.232 35.7775C81.975 38.1948 88.9431 41.9435 90.3837 42.7402C91.0385 41.1305 94.3889 33.071 98.4704 26.0756C102.727 18.7801 112.265 8.79991 123.151 4.13449C126.55 2.67757 139.002 -1.86235 156.584 0.844141C167.83 2.57389 177.886 8.83265 180.702 10.7097C183.949 12.876 189.94 17.7706 190 17.8197L189.656 18.2399C189.596 18.1908 183.627 13.3125 180.402 11.1626C177.608 9.30192 167.639 3.09773 156.502 1.38435C139.062 -1.30032 126.73 3.19595 123.364 4.64196C112.592 9.25827 103.147 19.1348 98.9397 26.3539C94.4271 34.0914 90.8093 43.144 90.7711 43.2313L90.6565 43.5259L90.3837 43.3677C90.3073 43.324 82.668 38.986 74.0684 36.2959C65.8889 33.7422 56.749 33.1911 46.9052 34.6698C34.7042 36.4978 24.6422 42.2654 19.7312 45.5394C8.45233 53.0696 0.51838 63.6063 0.436531 63.71Z" fill="white"/>
<path d="M154.952 29.9282C155.361 29.1261 156.507 26.7579 156.971 24.4279C157.544 21.5632 156.971 18.6984 155.252 17.5525C154.188 16.8432 152.387 16.9796 151.776 17.5525C150.865 18.4092 150.095 19.2714 149.522 22.7091C149.211 24.5588 149.31 26.6869 149.413 27.9365C148.982 27.8929 148.54 27.8656 148.093 27.8656C147.645 27.8656 147.209 27.8929 146.772 27.9365C146.876 26.6869 146.969 24.5588 146.663 22.7091C146.09 19.2714 145.321 18.4092 144.41 17.5525C143.798 16.9796 142.003 16.8432 140.934 17.5525C139.215 18.6984 138.642 21.5632 139.215 24.4279C139.679 26.7579 140.825 29.1261 141.234 29.9282C138.276 31.9035 136.345 35.1174 136.345 38.7516C136.345 44.7648 141.605 49.6375 148.087 49.6375C154.57 49.6375 159.836 44.7648 159.836 38.7516C159.836 35.1174 157.904 31.9035 154.946 29.9282H154.952Z" fill="white"/>
<path d="M42.6544 61.3146C44.4933 58.0952 46.545 56.8838 50.0154 56.8838C52.651 56.8838 54.3644 57.6805 55.4939 59.4757C56.2906 60.6871 56.5798 62.1494 56.5798 64.7031V73.3574C56.5798 77.2861 56.7871 77.5808 59.63 77.6627V78.5848H50.1355V77.6627C51.516 77.619 52.269 77.4553 52.6019 77.0351C52.8529 76.7023 52.9784 76.364 53.022 75.6546C53.0657 75.1963 53.1476 73.6466 53.1476 73.3574V64.9542C53.1476 62.8643 52.9402 61.4019 52.4764 60.4361C51.8052 58.9737 50.5556 58.2207 48.7986 58.2207C46.8342 58.2207 45.2463 59.1428 44.0732 61.0199C43.1946 62.4004 42.649 64.4085 42.649 66.1219V73.3574C42.649 77.2861 42.8563 77.5808 45.6992 77.6627V78.5848H36.1665V77.6627C38.9658 77.5808 39.2168 77.2425 39.2168 73.3574V62.1494C39.2168 59.0119 38.7148 58.3844 36.3302 58.3844V57.4622L42.6435 57.0038V61.3091L42.6544 61.3146Z" fill="white"/>
<path d="M65.6485 59.683C67.4055 57.8878 70.0411 56.8838 72.9222 56.8838C79.0282 56.8838 83.0388 61.1891 83.0388 67.7534C83.0388 74.7379 79.0227 79.125 72.6712 79.125C66.3197 79.125 62.5928 74.8197 62.5928 68.3373C62.5928 64.8668 63.7223 61.6474 65.643 59.683H65.6485ZM72.7967 78.1265C76.8946 78.1265 79.1537 74.5742 79.1537 68.1354C79.1537 61.6965 76.8128 57.8496 72.7148 57.8496C68.6169 57.8496 66.4834 61.4019 66.4834 67.8025C66.4834 74.2031 68.7806 78.1319 72.7967 78.1319V78.1265Z" fill="white"/>
<path d="M87.3062 65.5386H96.5442V67.8358H87.3062V65.5386Z" fill="white"/>
<path d="M106.579 72.6487C106.579 75.1151 106.704 76.2009 107.124 76.7902C107.545 77.3741 108.21 77.6688 109.171 77.6688C110.131 77.6688 110.884 77.4614 111.806 76.9157L112.183 78.0016C110.802 78.711 109.465 79.0493 107.959 79.0493C105.913 79.0493 104.363 78.3399 103.654 77.0031C103.196 76.1682 103.07 75.246 103.07 72.1521V58.6033H100.435V57.6429C102.901 57.4356 104.156 55.804 104.784 51.8753L106.71 51.3296C106.628 53.1248 106.584 54.7182 106.584 57.4738H111.604V58.6033H106.584V72.6541L106.579 72.6487Z" fill="white"/>
<path d="M117.869 59.683C119.626 57.8878 122.261 56.8838 125.142 56.8838C131.248 56.8838 135.259 61.1891 135.259 67.7534C135.259 74.7379 131.243 79.125 124.891 79.125C118.54 79.125 114.813 74.8197 114.813 68.3373C114.813 64.8668 115.943 61.6474 117.863 59.683H117.869ZM125.022 78.1265C129.12 78.1265 131.379 74.5742 131.379 68.1354C131.379 61.6965 129.038 57.8496 124.941 57.8496C120.843 57.8496 118.709 61.4019 118.709 67.8025C118.709 74.2031 121.006 78.1319 125.022 78.1319V78.1265Z" fill="white"/>
<path d="M44.2807 90.8403C44.2917 91.7134 44.368 92.2154 44.5699 92.7338C44.9355 93.6669 45.5521 94.1198 46.4634 94.1198C47.3747 94.1198 48.0404 93.6505 48.5424 92.6956L48.8316 92.8593C48.2641 94.0215 47.4074 94.5618 46.1687 94.5618C44.3626 94.5618 43.1294 93.2249 43.1294 91.2932C43.1294 89.247 44.3408 87.8501 46.1196 87.8501C47.2655 87.8501 48.1386 88.4285 48.5315 89.4543C48.657 89.7927 48.7061 90.0982 48.7334 90.8403H44.2807ZM47.6366 90.502C47.6257 89.8363 47.5602 89.4653 47.3965 89.0997C47.1182 88.4831 46.6926 88.1666 46.0978 88.1666C45.503 88.1666 44.9901 88.5049 44.6463 89.1488C44.4554 89.5144 44.379 89.8418 44.308 90.4966H47.6366V90.502Z" fill="white"/>
<path d="M51.6091 92.6081C51.6091 93.3502 51.6473 93.6831 51.7728 93.8577C51.8983 94.0323 52.1002 94.125 52.3894 94.125C52.6786 94.125 52.9078 94.0596 53.186 93.8959L53.3006 94.2233C52.8859 94.4361 52.4821 94.5397 52.0292 94.5397C51.4126 94.5397 50.9434 94.3269 50.7306 93.9231C50.5941 93.6721 50.5559 93.3939 50.5559 92.4608V88.3737H49.7593V88.0845C50.5014 88.0191 50.8833 87.528 51.0689 86.3439L51.6473 86.1802C51.62 86.7204 51.6091 87.2006 51.6091 88.0354H53.1206V88.3737H51.6091V92.6136V92.6081Z" fill="white"/>
<path d="M55.2651 90.8403C55.276 91.7134 55.3524 92.2154 55.5543 92.7338C55.9199 93.6669 56.5365 94.1198 57.4478 94.1198C58.359 94.1198 59.0247 93.6505 59.5267 92.6956L59.816 92.8593C59.2485 94.0215 58.3918 94.5618 57.1531 94.5618C55.347 94.5618 54.1138 93.2249 54.1138 91.2932C54.1138 89.247 55.3251 87.8501 57.104 87.8501C58.2499 87.8501 59.123 88.4285 59.5158 89.4543C59.6413 89.7927 59.6905 90.0982 59.7177 90.8403H55.2651ZM58.621 90.502C58.61 89.8363 58.5446 89.4653 58.3809 89.0997C58.1026 88.4831 57.677 88.1666 57.0822 88.1666C56.4874 88.1666 55.9745 88.5049 55.6307 89.1488C55.4397 89.5144 55.3633 89.8418 55.2924 90.4966H58.621V90.502Z" fill="white"/>
<path d="M62.5823 87.8883C62.6096 88.5213 62.6205 88.685 62.6205 88.9469V89.3507C63.0352 88.3903 63.7173 87.8501 64.4648 87.8501C65.005 87.8501 65.4252 88.1884 65.4252 88.6304C65.4252 88.9469 65.1578 89.1488 64.754 89.1488C64.4757 89.1488 64.3611 89.0724 64.2847 88.8323C64.2083 88.554 64.132 88.4776 63.9301 88.4776C63.6027 88.4776 63.248 88.7559 62.9861 89.2361C62.7569 89.6508 62.6477 90.1692 62.6477 90.8403V92.8211C62.6477 94.0052 62.7132 94.0925 63.5536 94.1198V94.3981H60.667V94.1198C61.5128 94.0925 61.5892 93.9943 61.5892 92.8211V89.438C61.5892 88.494 61.4364 88.303 60.7216 88.303V88.0247L62.5877 87.8883H62.5823Z" fill="white"/>
<path d="M67.7772 89.187C68.3338 88.2157 68.9504 87.8501 69.9981 87.8501C70.7947 87.8501 71.3076 88.0902 71.6514 88.6304C71.8915 88.996 71.9788 89.438 71.9788 90.2074V92.8211C71.9788 94.0052 72.0443 94.0925 72.901 94.1198V94.3981H70.0363V94.1198C70.451 94.1089 70.6801 94.0543 70.7784 93.9288C70.8548 93.8306 70.8929 93.7269 70.9039 93.5141C70.9148 93.3777 70.9421 92.9084 70.9421 92.8211V90.2838C70.9421 89.6508 70.8766 89.2143 70.7402 88.9196C70.5383 88.4776 70.1618 88.2539 69.6325 88.2539C69.0377 88.2539 68.563 88.5322 68.2083 89.0997C67.9409 89.5144 67.7772 90.1201 67.7772 90.6384V92.8211C67.7772 94.0052 67.8427 94.0925 68.6994 94.1198V94.3981H65.8237V94.1198C66.6695 94.0925 66.7459 93.9943 66.7459 92.8211V89.438C66.7459 88.494 66.5931 88.303 65.8728 88.303V88.0247L67.7772 87.8883V89.187Z" fill="white"/>
<path d="M79.6726 94.3708C79.1815 94.4472 78.6249 94.4963 78.3739 94.4963C77.9974 94.4963 77.8937 94.2944 77.8446 93.4486C77.6427 93.6778 77.479 93.8142 77.228 93.9888C76.6714 94.3926 76.2294 94.529 75.5856 94.529C75.029 94.529 74.6143 94.4035 74.2978 94.1361C73.9595 93.836 73.7412 93.3286 73.7412 92.7993C73.7412 91.8007 74.3742 91.1623 75.5965 90.884C76.2513 90.7312 76.9224 90.6439 77.8391 90.5839V89.7872C77.8391 89.2088 77.79 88.9032 77.6645 88.6413C77.5008 88.3139 77.1461 88.1502 76.6278 88.1502C75.7929 88.1502 75.3673 88.5267 75.3182 89.3125C75.3073 89.5798 75.28 89.6672 75.1818 89.7436C75.0945 89.809 74.9308 89.8418 74.7398 89.8418C74.3087 89.8418 74.1232 89.7272 74.1232 89.4653C74.1232 89.0124 74.4506 88.5595 74.9799 88.2539C75.4601 87.9865 76.0766 87.8501 76.8242 87.8501C77.6318 87.8501 78.2102 88.0411 78.5158 88.4067C78.7668 88.7232 78.8814 89.1379 78.8814 89.8309C78.8814 89.8563 78.8723 90.2801 78.8541 91.1022L78.8432 92.3027L78.8323 92.8811C78.8323 93.4104 78.8977 93.8633 78.9687 93.967C79.0396 94.0707 79.1978 94.1034 79.6726 94.1034V94.3708ZM77.8446 90.8785C76.7205 90.9822 76.2294 91.0804 75.7274 91.3314C75.1708 91.5988 74.8816 92.1008 74.8816 92.7665C74.8816 93.5632 75.3127 94.1034 75.9402 94.1034C76.5677 94.1034 77.2389 93.7269 77.5554 93.1812C77.7573 92.8265 77.8446 92.2972 77.8446 91.4678V90.8731V90.8785Z" fill="white"/>
<path d="M80.54 94.1197C81.3749 94.0924 81.4349 93.9942 81.4349 92.821V86.6769C81.4349 86.0603 81.3858 85.7547 81.2439 85.6401C81.1566 85.5637 80.9657 85.5364 80.54 85.5255V85.2472L82.559 85.1436C82.5099 85.9893 82.4826 86.9988 82.4826 87.6645V92.8101C82.4826 93.9833 82.5481 94.0815 83.3884 94.1088V94.3871H80.54V94.1088V94.1197Z" fill="white"/>
<path d="M90.2037 88.9742C90.6839 88.2321 91.3878 87.8501 92.2718 87.8501C93.8869 87.8501 94.8582 89.0506 94.8582 91.0313C94.8582 92.0135 94.6072 92.9139 94.1543 93.5414C93.7014 94.158 92.932 94.5126 92.0753 94.5126C91.3332 94.5126 90.9022 94.3217 90.2092 93.6941V95.5385C90.2092 96.7117 90.2746 96.7881 91.1805 96.8263V97.1155H88.2666V96.8263C89.1233 96.799 89.1888 96.7117 89.1888 95.5385V89.4434C89.1888 88.4994 89.036 88.3085 88.3157 88.3085V88.0302L90.2092 87.8938V88.9796L90.2037 88.9742ZM91.9717 94.1743C93.1176 94.1743 93.685 93.1649 93.685 91.1732C93.685 89.1815 93.1557 88.2102 92.0808 88.2102C91.5024 88.2102 90.9458 88.5267 90.6402 89.0287C90.3128 89.5689 90.1491 90.2892 90.1491 91.2332C90.1491 93.1867 90.7657 94.1743 91.9662 94.1743H91.9717Z" fill="white"/>
<path d="M97.8104 89.2032C98.4052 88.2319 99.0218 87.8554 100.059 87.8554C100.981 87.8554 101.597 88.1719 101.903 88.7667C102.056 89.0832 102.132 89.6125 102.132 90.3055V92.8264C102.132 93.9996 102.198 94.0978 103.038 94.1251V94.4034H100.173V94.1251C101.03 94.0978 101.095 94.0105 101.095 92.8264V90.2891C101.095 89.6452 101.03 89.1814 100.893 88.9249C100.692 88.5211 100.326 88.3192 99.7857 88.3192C99.2837 88.3192 98.8417 88.4938 98.5361 88.8103C98.2851 89.0777 98.0669 89.4542 97.9414 89.8471C97.8541 90.1254 97.8159 90.3764 97.8159 90.7911V92.821C97.8159 94.005 97.8813 94.0924 98.7217 94.1196V94.3979H95.8569V94.1196C96.7136 94.0924 96.7791 94.005 96.7791 92.821V86.6768C96.7791 85.6073 96.73 85.5418 95.8569 85.5309V85.2526L97.8759 85.1489C97.8268 86.1093 97.8104 86.5731 97.8104 87.6699V89.1978V89.2032Z" fill="white"/>
<path d="M104.86 88.6959C105.389 88.1557 106.186 87.8501 107.054 87.8501C108.898 87.8501 110.104 89.1488 110.104 91.1295C110.104 93.2358 108.893 94.5618 106.977 94.5618C105.062 94.5618 103.938 93.2631 103.938 91.3096C103.938 90.2619 104.276 89.2906 104.86 88.6959ZM107.016 94.2616C108.249 94.2616 108.931 93.1921 108.931 91.2496C108.931 89.307 108.227 88.1448 106.988 88.1448C105.75 88.1448 105.111 89.2143 105.111 91.1459C105.111 93.0775 105.804 94.2616 107.016 94.2616Z" fill="white"/>
<path d="M113.045 92.6081C113.045 93.3502 113.083 93.6831 113.209 93.8577C113.334 94.0323 113.536 94.125 113.825 94.125C114.115 94.125 114.344 94.0596 114.622 93.8959L114.737 94.2233C114.322 94.4361 113.918 94.5397 113.465 94.5397C112.849 94.5397 112.379 94.3269 112.167 93.9231C112.03 93.6721 111.992 93.3939 111.992 92.4608V88.3737H111.195V88.0845C111.937 88.0191 112.319 87.528 112.505 86.3439L113.083 86.1802C113.056 86.7204 113.045 87.2006 113.045 88.0354H114.557V88.3737H113.045V92.6136V92.6081Z" fill="white"/>
<path d="M116.45 88.6959C116.979 88.1557 117.776 87.8501 118.644 87.8501C120.488 87.8501 121.694 89.1488 121.694 91.1295C121.694 93.2358 120.482 94.5618 118.567 94.5618C116.652 94.5618 115.528 93.2631 115.528 91.3096C115.528 90.2619 115.866 89.2906 116.45 88.6959ZM118.611 94.2616C119.844 94.2616 120.526 93.1921 120.526 91.2496C120.526 89.307 119.822 88.1448 118.584 88.1448C117.345 88.1448 116.706 89.2143 116.706 91.1459C116.706 93.0775 117.399 94.2616 118.611 94.2616Z" fill="white"/>
<path d="M123.009 92.4063H123.402C123.451 93.0011 123.538 93.3012 123.757 93.5795C124.084 94.0324 124.553 94.2616 125.132 94.2616C125.988 94.2616 126.507 93.8196 126.507 93.0775C126.507 92.7883 126.392 92.51 126.207 92.3463C125.977 92.1553 125.939 92.1444 124.793 91.6424C123.429 91.0476 123.015 90.5947 123.015 89.738C123.015 89.296 123.14 88.8704 123.353 88.5757C123.691 88.1228 124.286 87.8555 124.919 87.8555C125.246 87.8555 125.41 87.8828 126.092 88.0083C126.196 88.0192 126.283 88.0355 126.359 88.0355C126.512 88.0355 126.714 88.0083 126.965 87.9482L126.9 89.9399H126.485C126.458 88.8158 125.907 88.1501 124.984 88.1501C124.204 88.1501 123.697 88.5921 123.697 89.2742C123.697 89.5634 123.811 89.7926 124.035 89.9563C124.275 90.1309 124.515 90.2564 125.345 90.6111C126.19 90.9658 126.507 91.1513 126.796 91.4678C127.063 91.757 127.211 92.1717 127.211 92.6682C127.211 93.8305 126.441 94.5726 125.257 94.5726C124.903 94.5726 124.739 94.5453 123.997 94.4198C123.822 94.3925 123.669 94.3816 123.527 94.3816C123.386 94.3816 123.211 94.3925 122.96 94.4307L123.009 92.4118V92.4063Z" fill="white"/>
</svg>
