<svg width="40" height="38" viewBox="0 0 40 38" fill="none" xmlns="http://www.w3.org/2000/svg">
<path d="M39.7785 16.1819C39.7785 7.24493 30.8738 0 19.89 0C8.90615 0 0 7.24493 0 16.1819C0 23.9713 6.76522 30.4743 15.7747 32.0153L15.767 32.0353C15.767 32.0353 15.8087 32.0338 15.8812 32.0353C16.2282 32.0939 16.5799 32.1433 16.9331 32.1865C17.7336 32.4148 18.6128 32.987 18.3938 34.4092C18.0097 36.9095 17.945 38 18.9707 38C19.9964 38 33.1968 30.8908 37.2288 24.1117C38.8499 21.7687 39.7769 19.0648 39.7769 16.1835L39.7785 16.1819Z" fill="white"/>
<path d="M9.08666 12.5045C9.08666 12.3764 8.98177 12.27 8.85221 12.27H7.24959C7.12157 12.27 7.01514 12.3749 7.01514 12.5045V20.7952C7.01514 20.9232 7.12002 21.0296 7.24959 21.0296H12.7839C12.912 21.0296 13.0184 20.9248 13.0184 20.7952V19.3977C13.0184 19.2697 12.9135 19.1633 12.7839 19.1633H9.31803C9.19 19.1633 9.08357 19.0584 9.08357 18.9288V12.5029L9.08666 12.5045Z" fill="#41587A"/>
<path d="M15.9581 12.2705H14.357C14.2275 12.2705 14.1226 12.3755 14.1226 12.505V20.7941C14.1226 20.9236 14.2275 21.0286 14.357 21.0286H15.9581C16.0876 21.0286 16.1925 20.9236 16.1925 20.7941V12.505C16.1925 12.3755 16.0876 12.2705 15.9581 12.2705Z" fill="#41587A"/>
<path d="M22.8361 15.9277C22.8361 16.0557 22.8361 16.267 22.8361 16.395V16.7899C22.8392 16.9179 22.7929 16.9488 22.7343 16.8593C22.6757 16.7683 22.4644 16.4459 22.3919 16.3395L19.7712 12.4649C19.6987 12.3584 19.5352 12.2705 19.4057 12.2705H18.0313C17.9033 12.2705 17.7969 12.3754 17.7969 12.505V20.7957C17.7969 20.9237 17.9018 21.0301 18.0313 21.0301H19.5784C19.7064 21.0301 19.8129 20.9252 19.8129 20.7957V17.3329C19.8129 17.2048 19.8129 16.9935 19.8129 16.8655V16.3812C19.8098 16.2531 19.8669 16.2362 19.9378 16.3441L20.089 16.5771C20.1599 16.685 20.2756 16.8593 20.3481 16.9673L22.9333 20.8358C23.0042 20.9422 23.1677 21.0301 23.2973 21.0301H24.63C24.758 21.0301 24.8644 20.9252 24.8644 20.7957V12.505C24.8644 12.3769 24.7595 12.2705 24.63 12.2705H23.0721C22.9441 12.2705 22.8376 12.3754 22.8376 12.505V15.9277H22.8361Z" fill="#41587A"/>
<path d="M28.9783 19.1728C28.8502 19.1728 28.7438 19.0679 28.7438 18.9384V17.6196C28.7438 17.4916 28.8487 17.3851 28.9783 17.3851H31.8688C31.9969 17.3851 32.1033 17.2802 32.1033 17.1507V15.7733C32.1033 15.6452 31.9984 15.5388 31.8688 15.5388H28.9783C28.8502 15.5388 28.7438 15.4339 28.7438 15.3043V14.3542C28.7438 14.2262 28.8487 14.1197 28.9783 14.1197H32.0663C32.1943 14.1197 32.3007 14.0148 32.3007 13.8853V12.4986C32.3007 12.3706 32.1958 12.2642 32.0663 12.2642H26.9083C26.7803 12.2642 26.6738 12.369 26.6738 12.4986V20.7893C26.6738 20.9174 26.7787 21.0238 26.9083 21.0238H32.2529C32.3809 21.0238 32.4874 20.9189 32.4874 20.7893V19.4027C32.4874 19.2746 32.3825 19.1682 32.2529 19.1682H28.9767L28.9783 19.1728Z" fill="#41587A"/>
</svg>
