<svg xmlns="http://www.w3.org/2000/svg" width="84" height="43" viewBox="0 0 84 43" fill="none">
<path d="M0.192993 28.1665L0 28.0218C0.0361861 27.9735 3.56795 23.2838 8.59299 19.933C10.781 18.4735 15.2633 15.9043 20.7033 15.0889C25.0914 14.4303 29.1684 14.6764 32.8184 15.8174C36.2416 16.8861 39.3222 18.5434 39.9591 18.8957C40.2486 18.184 41.7298 14.6209 43.5343 11.5282C45.416 8.30278 49.6329 3.89049 54.4456 1.82788C55.9485 1.18377 61.4536 -0.823354 69.2264 0.373199C74.1984 1.13793 78.6445 3.90496 79.8893 4.73483C81.3246 5.69256 83.9735 7.85648 84 7.8782L83.848 8.06395C83.8215 8.04224 81.1823 5.88555 79.7566 4.93506C78.5214 4.11243 74.114 1.36952 69.1902 0.612028C61.4802 -0.574876 56.0281 1.41295 54.5397 2.05223C49.7776 4.09313 45.6017 8.45959 43.7418 11.6512C41.7467 15.072 40.1473 19.0742 40.1304 19.1128L40.0797 19.243L39.9591 19.1731C39.9253 19.1538 36.548 17.2359 32.746 16.0466C29.1298 14.9176 25.089 14.6739 20.737 15.3277C15.3429 16.1359 10.8944 18.6858 8.72326 20.1332C3.73682 23.4623 0.229179 28.1207 0.192993 28.1665Z" fill="white"/>
<path d="M68.5051 13.2313C68.686 12.8767 69.1927 11.8297 69.3977 10.7996C69.651 9.53309 69.3977 8.26658 68.6378 7.75997C68.1674 7.44636 67.3713 7.50667 67.1011 7.75997C66.6982 8.13872 66.3581 8.51988 66.1048 10.0397C65.9673 10.8575 66.0107 11.7983 66.0565 12.3508C65.8659 12.3315 65.6705 12.3194 65.4727 12.3194C65.2749 12.3194 65.0819 12.3315 64.8889 12.3508C64.9348 11.7983 64.9758 10.8575 64.8407 10.0397C64.5874 8.51988 64.2472 8.13872 63.8443 7.75997C63.5742 7.50667 62.7805 7.44636 62.3076 7.75997C61.5477 8.26658 61.2944 9.53309 61.5477 10.7996C61.7528 11.8297 62.2594 12.8767 62.4403 13.2313C61.1328 14.1046 60.2788 15.5255 60.2788 17.1322C60.2788 19.7906 62.6044 21.9449 65.4703 21.9449C68.3363 21.9449 70.6642 19.7906 70.6642 17.1322C70.6642 15.5255 69.8102 14.1046 68.5027 13.2313H68.5051Z" fill="white"/>
<path d="M18.8576 27.1075C19.6706 25.6842 20.5777 25.1486 22.1119 25.1486C23.2771 25.1486 24.0346 25.5008 24.534 26.2945C24.8862 26.8301 25.0141 27.4766 25.0141 28.6056V32.4317C25.0141 34.1686 25.1057 34.2989 26.3626 34.3351V34.7428H22.165V34.3351C22.7754 34.3158 23.1083 34.2434 23.2554 34.0576C23.3664 33.9105 23.4219 33.7609 23.4412 33.4473C23.4605 33.2447 23.4967 32.5595 23.4967 32.4317V28.7166C23.4967 27.7926 23.405 27.1461 23.1999 26.7191C22.9032 26.0726 22.3508 25.7397 21.574 25.7397C20.7055 25.7397 20.0035 26.1474 19.4848 26.9772C19.0964 27.5876 18.8552 28.4753 18.8552 29.2328V32.4317C18.8552 34.1686 18.9469 34.2989 20.2037 34.3351V34.7428H15.9893V34.3351C17.2268 34.2989 17.3378 34.1493 17.3378 32.4317V27.4766C17.3378 26.0895 17.1159 25.812 16.0616 25.812V25.4043L18.8528 25.2017V27.1051L18.8576 27.1075Z" fill="white"/>
<path d="M29.0233 26.3862C29.8001 25.5925 30.9653 25.1486 32.239 25.1486C34.9385 25.1486 36.7116 27.052 36.7116 29.9541C36.7116 33.042 34.9361 34.9816 32.1281 34.9816C29.32 34.9816 27.6724 33.0782 27.6724 30.2123C27.6724 28.678 28.1717 27.2547 29.0209 26.3862H29.0233ZM32.1836 34.5401C33.9953 34.5401 34.994 32.9696 34.994 30.123C34.994 27.2764 33.9591 25.5756 32.1474 25.5756C30.3357 25.5756 29.3924 27.1461 29.3924 29.9758C29.3924 32.8056 30.408 34.5425 32.1836 34.5425V34.5401Z" fill="white"/>
<path d="M38.5981 28.9747H42.6823V29.9903H38.5981V28.9747Z" fill="white"/>
<path d="M47.1187 32.1181C47.1187 33.2085 47.1742 33.6886 47.36 33.9491C47.5457 34.2072 47.84 34.3375 48.2646 34.3375C48.6892 34.3375 49.0221 34.2458 49.4298 34.0046L49.5963 34.4847C48.9859 34.7983 48.3949 34.9478 47.7291 34.9478C46.8244 34.9478 46.1393 34.6342 45.8257 34.0432C45.623 33.6741 45.5675 33.2664 45.5675 31.8986V25.9085H44.4023V25.484C45.4928 25.3923 46.0476 24.671 46.325 22.9341L47.1766 22.6928C47.1404 23.4865 47.1211 24.1909 47.1211 25.4092H49.3405V25.9085H47.1211V32.1205L47.1187 32.1181Z" fill="white"/>
<path d="M52.1102 26.3862C52.887 25.5925 54.0522 25.1486 55.326 25.1486C58.0254 25.1486 59.7986 27.052 59.7986 29.9541C59.7986 33.042 58.023 34.9816 55.215 34.9816C52.407 34.9816 50.7593 33.0782 50.7593 30.2123C50.7593 28.678 51.2586 27.2547 52.1078 26.3862H52.1102ZM55.2729 34.5401C57.0846 34.5401 58.0833 32.9696 58.0833 30.123C58.0833 27.2764 57.0484 25.5756 55.2367 25.5756C53.425 25.5756 52.4817 27.1461 52.4817 29.9758C52.4817 32.8056 53.4974 34.5425 55.2729 34.5425V34.5401Z" fill="white"/>
<path d="M19.5769 40.161C19.5817 40.547 19.6155 40.7689 19.7047 40.9981C19.8664 41.4106 20.139 41.6109 20.5419 41.6109C20.9447 41.6109 21.239 41.4034 21.461 40.9812L21.5888 41.0536C21.3379 41.5674 20.9592 41.8063 20.4116 41.8063C19.6131 41.8063 19.0679 41.2152 19.0679 40.3612C19.0679 39.4566 19.6034 38.839 20.3899 38.839C20.8965 38.839 21.2825 39.0947 21.4562 39.5483C21.5116 39.6978 21.5333 39.8329 21.5454 40.161H19.5769ZM21.0605 40.0114C21.0557 39.7171 21.0267 39.5531 20.9544 39.3915C20.8313 39.1189 20.6432 38.9789 20.3802 38.9789C20.1173 38.9789 19.8905 39.1285 19.7385 39.4132C19.6541 39.5748 19.6203 39.7195 19.5889 40.009H21.0605V40.0114Z" fill="white"/>
<path d="M22.8168 40.9426C22.8168 41.2707 22.8337 41.4179 22.8892 41.4951C22.9447 41.5723 23.0339 41.6133 23.1618 41.6133C23.2897 41.6133 23.391 41.5843 23.514 41.512L23.5647 41.6567C23.3813 41.7508 23.2028 41.7966 23.0026 41.7966C22.73 41.7966 22.5225 41.7026 22.4284 41.524C22.3681 41.4131 22.3512 41.29 22.3512 40.8775V39.0706H21.999V38.9428C22.3271 38.9138 22.496 38.6967 22.578 38.1732L22.8337 38.1008C22.8217 38.3397 22.8168 38.552 22.8168 38.9211H23.4851V39.0706H22.8168V40.9451V40.9426Z" fill="white"/>
<path d="M24.4328 40.161C24.4377 40.547 24.4714 40.7689 24.5607 40.9981C24.7223 41.4106 24.9949 41.6109 25.3978 41.6109C25.8007 41.6109 26.095 41.4034 26.3169 40.9812L26.4448 41.0536C26.1939 41.5674 25.8152 41.8063 25.2675 41.8063C24.469 41.8063 23.9238 41.2152 23.9238 40.3612C23.9238 39.4566 24.4594 38.839 25.2458 38.839C25.7524 38.839 26.1384 39.0947 26.3121 39.5483C26.3676 39.6978 26.3893 39.8329 26.4014 40.161H24.4328ZM25.9165 40.0114C25.9117 39.7171 25.8827 39.5531 25.8103 39.3915C25.6873 39.1189 25.4991 38.9789 25.2362 38.9789C24.9732 38.9789 24.7465 39.1285 24.5945 39.4132C24.51 39.5748 24.4763 39.7195 24.4449 40.009H25.9165V40.0114Z" fill="white"/>
<path d="M27.668 38.8559C27.6801 39.1357 27.6849 39.2081 27.6849 39.3239V39.5024C27.8683 39.0778 28.1698 38.839 28.5003 38.839C28.7392 38.839 28.9249 38.9886 28.9249 39.184C28.9249 39.3239 28.8067 39.4132 28.6282 39.4132C28.5051 39.4132 28.4545 39.3794 28.4207 39.2733C28.3869 39.1502 28.3532 39.1164 28.2639 39.1164C28.1192 39.1164 27.9624 39.2395 27.8466 39.4518C27.7452 39.6351 27.697 39.8643 27.697 40.161V41.0367C27.697 41.5602 27.7259 41.5988 28.0975 41.6109V41.7339H26.8213V41.6109C27.1952 41.5988 27.229 41.5554 27.229 41.0367V39.541C27.229 39.1237 27.1614 39.0392 26.8454 39.0392V38.9162L27.6705 38.8559H27.668Z" fill="white"/>
<path d="M29.9647 39.4301C30.2108 39.0007 30.4834 38.839 30.9466 38.839C31.2988 38.839 31.5255 38.9452 31.6775 39.184C31.7837 39.3456 31.8223 39.541 31.8223 39.8812V41.0367C31.8223 41.5602 31.8512 41.5988 32.23 41.6109V41.7339H30.9635V41.6109C31.1468 41.606 31.2481 41.5819 31.2915 41.5264C31.3253 41.483 31.3422 41.4372 31.347 41.3431C31.3519 41.2828 31.3639 41.0753 31.3639 41.0367V39.915C31.3639 39.6351 31.335 39.4421 31.2747 39.3118C31.1854 39.1164 31.0189 39.0175 30.7849 39.0175C30.522 39.0175 30.3121 39.1406 30.1553 39.3915C30.0371 39.5748 29.9647 39.8426 29.9647 40.0718V41.0367C29.9647 41.5602 29.9937 41.5988 30.3724 41.6109V41.7339H29.1011V41.6109C29.475 41.5988 29.5088 41.5554 29.5088 41.0367V39.541C29.5088 39.1237 29.4412 39.0392 29.1228 39.0392V38.9162L29.9647 38.8559V39.4301Z" fill="white"/>
<path d="M35.2238 41.7218C35.0067 41.7556 34.7607 41.7773 34.6497 41.7773C34.4832 41.7773 34.4374 41.6881 34.4157 41.3141C34.3264 41.4155 34.2541 41.4758 34.1431 41.553C33.897 41.7315 33.7016 41.7918 33.417 41.7918C33.1709 41.7918 32.9875 41.7363 32.8476 41.6181C32.6981 41.4854 32.6016 41.2611 32.6016 41.0271C32.6016 40.5856 32.8814 40.3033 33.4218 40.1803C33.7113 40.1128 34.008 40.0742 34.4133 40.0476V39.6954C34.4133 39.4397 34.3916 39.3046 34.3361 39.1888C34.2637 39.0441 34.1069 38.9717 33.8777 38.9717C33.5086 38.9717 33.3205 39.1382 33.2987 39.4855C33.2939 39.6038 33.2819 39.6424 33.2384 39.6761C33.1998 39.7051 33.1275 39.7195 33.043 39.7195C32.8525 39.7195 32.7704 39.6689 32.7704 39.5531C32.7704 39.3529 32.9152 39.1526 33.1492 39.0175C33.3615 38.8993 33.6341 38.839 33.9646 38.839C34.3216 38.839 34.5773 38.9235 34.7124 39.0851C34.8234 39.225 34.874 39.4083 34.874 39.7147C34.874 39.726 34.87 39.9133 34.862 40.2768L34.8572 40.8075L34.8523 41.0633C34.8523 41.2973 34.8813 41.4975 34.9126 41.5433C34.944 41.5892 35.014 41.6036 35.2238 41.6036V41.7218ZM34.4157 40.1779C33.9187 40.2237 33.7016 40.2672 33.4797 40.3781C33.2336 40.4963 33.1058 40.7183 33.1058 41.0126C33.1058 41.3648 33.2963 41.6036 33.5738 41.6036C33.8512 41.6036 34.1479 41.4372 34.2878 41.1959C34.3771 41.0391 34.4157 40.8051 34.4157 40.4384V40.1755V40.1779Z" fill="white"/>
<path d="M35.6074 41.6109C35.9765 41.5988 36.0031 41.5554 36.0031 41.0367V38.3203C36.0031 38.0477 35.9813 37.9126 35.9186 37.862C35.88 37.8282 35.7956 37.8161 35.6074 37.8113V37.6883L36.5 37.6425C36.4783 38.0164 36.4662 38.4627 36.4662 38.757V41.0319C36.4662 41.5506 36.4952 41.594 36.8667 41.606V41.7291H35.6074V41.606V41.6109Z" fill="white"/>
<path d="M39.8798 39.336C40.0921 39.0079 40.4033 38.839 40.7941 38.839C41.5082 38.839 41.9376 39.3697 41.9376 40.2455C41.9376 40.6797 41.8267 41.0777 41.6264 41.3552C41.4262 41.6278 41.086 41.7846 40.7073 41.7846C40.3792 41.7846 40.1886 41.7001 39.8823 41.4227V42.2381C39.8823 42.7568 39.9112 42.7905 40.3117 42.8074V42.9353H39.0234V42.8074C39.4022 42.7954 39.4311 42.7568 39.4311 42.2381V39.5434C39.4311 39.1261 39.3636 39.0417 39.0452 39.0417V38.9186L39.8823 38.8583V39.3384L39.8798 39.336ZM40.6615 41.635C41.1681 41.635 41.419 41.1887 41.419 40.3082C41.419 39.4276 41.185 38.9982 40.7097 38.9982C40.454 38.9982 40.2079 39.1382 40.0728 39.3601C39.9281 39.5989 39.8557 39.9174 39.8557 40.3347C39.8557 41.1984 40.1283 41.635 40.659 41.635H40.6615Z" fill="white"/>
<path d="M43.2425 39.4373C43.5055 39.0079 43.7781 38.8415 44.2365 38.8415C44.6442 38.8415 44.9168 38.9814 45.0519 39.2443C45.1194 39.3842 45.1532 39.6182 45.1532 39.9246V41.0392C45.1532 41.5578 45.1821 41.6012 45.5536 41.6133V41.7363H44.2871V41.6133C44.6659 41.6012 44.6948 41.5626 44.6948 41.0392V39.9174C44.6948 39.6327 44.6659 39.4277 44.6056 39.3143C44.5163 39.1358 44.3547 39.0465 44.1158 39.0465C43.8939 39.0465 43.6985 39.1237 43.5634 39.2636C43.4524 39.3818 43.3559 39.5483 43.3004 39.722C43.2618 39.845 43.245 39.956 43.245 40.1393V41.0367C43.245 41.5602 43.2739 41.5988 43.6454 41.6109V41.7339H42.3789V41.6109C42.7577 41.5988 42.7866 41.5602 42.7866 41.0367V38.3204C42.7866 37.8475 42.7649 37.8186 42.3789 37.8138V37.6907L43.2715 37.6449C43.2498 38.0695 43.2425 38.2745 43.2425 38.7594V39.4349V39.4373Z" fill="white"/>
<path d="M46.3594 39.2129C46.5934 38.9741 46.9456 38.839 47.3291 38.839C48.1445 38.839 48.6777 39.4132 48.6777 40.2889C48.6777 41.2201 48.1421 41.8063 47.2954 41.8063C46.4486 41.8063 45.9517 41.2321 45.9517 40.3685C45.9517 39.9053 46.1012 39.4759 46.3594 39.2129ZM47.3123 41.6736C47.8575 41.6736 48.159 41.2008 48.159 40.3419C48.159 39.4831 47.8478 38.9693 47.3002 38.9693C46.7526 38.9693 46.4703 39.4421 46.4703 40.2961C46.4703 41.1501 46.7767 41.6736 47.3123 41.6736Z" fill="white"/>
<path d="M49.978 40.9426C49.978 41.2707 49.9948 41.4179 50.0503 41.4951C50.1058 41.5723 50.1951 41.6133 50.3229 41.6133C50.4508 41.6133 50.5521 41.5843 50.6751 41.512L50.7258 41.6567C50.5425 41.7508 50.3639 41.7966 50.1637 41.7966C49.8911 41.7966 49.6836 41.7026 49.5896 41.524C49.5293 41.4131 49.5124 41.29 49.5124 40.8775V39.0706H49.1602V38.9428C49.4882 38.9138 49.6571 38.6967 49.7391 38.1732L49.9949 38.1008C49.9828 38.3397 49.978 38.552 49.978 38.9211H50.6462V39.0706H49.978V40.9451V40.9426Z" fill="white"/>
<path d="M51.4834 39.2129C51.7174 38.9741 52.0696 38.839 52.4532 38.839C53.2686 38.839 53.8017 39.4132 53.8017 40.2889C53.8017 41.2201 53.2661 41.8063 52.4194 41.8063C51.5726 41.8063 51.0757 41.2321 51.0757 40.3685C51.0757 39.9053 51.2253 39.4759 51.4834 39.2129ZM52.4387 41.6736C52.9839 41.6736 53.2854 41.2008 53.2854 40.3419C53.2854 39.4831 52.9742 38.9693 52.4266 38.9693C51.879 38.9693 51.5968 39.4421 51.5968 40.2961C51.5968 41.1501 51.9031 41.6736 52.4387 41.6736Z" fill="white"/>
<path d="M54.383 40.8534H54.5567C54.5784 41.1163 54.617 41.249 54.7135 41.372C54.8583 41.5723 55.0658 41.6736 55.3215 41.6736C55.7002 41.6736 55.9294 41.4782 55.9294 41.1501C55.9294 41.0222 55.8787 40.8992 55.7967 40.8268C55.6954 40.7424 55.6785 40.7376 55.1719 40.5156C54.5688 40.2527 54.3855 40.0525 54.3855 39.6737C54.3855 39.4783 54.4409 39.2901 54.535 39.1599C54.6846 38.9596 54.9475 38.8414 55.2274 38.8414C55.3721 38.8414 55.4445 38.8535 55.7461 38.909C55.7919 38.9138 55.8305 38.921 55.8643 38.921C55.9318 38.921 56.0211 38.909 56.132 38.8824L56.1031 39.763H55.9197C55.9077 39.266 55.664 38.9717 55.2563 38.9717C54.9114 38.9717 54.687 39.1671 54.687 39.4687C54.687 39.5965 54.7377 39.6978 54.8366 39.7702C54.9427 39.8474 55.0489 39.9029 55.4156 40.0597C55.7895 40.2165 55.9294 40.2985 56.0572 40.4384C56.1755 40.5663 56.2406 40.7496 56.2406 40.9692C56.2406 41.483 55.9004 41.8111 55.377 41.8111C55.2201 41.8111 55.1478 41.799 54.8197 41.7436C54.7425 41.7315 54.6749 41.7267 54.6122 41.7267C54.5495 41.7267 54.4723 41.7315 54.3613 41.7484L54.383 40.8558V40.8534Z" fill="white"/>
</svg>