<svg width="39" height="38" viewBox="0 0 39 38" fill="none" xmlns="http://www.w3.org/2000/svg">
<path d="M38.9944 13.9566C38.9062 11.6188 38.9724 9.20988 38.1581 6.97932C37.2249 4.1512 34.8924 1.84419 32.078 0.892498C29.7491 0.0339583 27.2332 0.0609067 24.7885 0.00173742C21.1666 -0.00353509 17.545 0.00349492 13.9248 0.0187266C12.766 0.0644217 11.6058 0.0509475 10.4502 0.179831C8.11244 0.371399 5.73425 1.07733 3.90879 2.60226C2.25967 3.93737 1.10294 5.822 0.587111 7.87476C0.0680616 9.85635 0.122544 11.9226 0.00713481 13.9513C0.00713481 17.3459 -0.00985438 20.7403 0.0085994 24.1352C0.137776 26.4864 0.0630819 28.9173 0.945055 31.1447C1.92398 33.8879 4.231 36.095 6.98266 37.0197C8.93525 37.7101 11.0287 37.8475 13.083 37.846C14.8932 37.9172 16.7049 37.8747 18.5151 37.8832C21.7823 37.7948 25.0583 37.9664 28.3202 37.7186C31.006 37.5303 33.7676 36.6685 35.7032 34.7209C37.7864 32.7988 38.7024 29.9423 38.8567 27.1754C39.101 22.7749 38.9484 18.3641 38.9941 13.9569L38.9944 13.9566ZM35.3151 27.3517C35.2014 28.3306 35.0368 29.3163 34.6417 30.2255C33.953 31.9203 32.4618 33.2537 30.7213 33.7997C29.0384 34.3917 27.2352 34.3545 25.4775 34.4561C22.3629 34.4508 19.2497 34.5563 16.1354 34.4699C14.1506 34.5138 12.1573 34.4833 10.1828 34.2631C8.15902 34.0492 6.14023 33.1178 4.97296 31.3978C3.68032 29.5266 3.65835 27.1686 3.55817 24.9852C3.55319 22.2658 3.51921 19.5481 3.54645 16.8304C3.58717 15.1306 3.50222 13.4273 3.63462 11.7293C3.6973 9.51891 4.12643 7.08272 5.86372 5.54402C7.72814 3.73057 10.4763 3.57093 12.9277 3.48452C17.1041 3.39635 21.2826 3.40309 25.461 3.42682C27.8682 3.55394 30.5045 3.50649 32.5417 4.99773C34.0482 6.07303 34.9489 7.81384 35.202 9.62377C35.4955 11.729 35.4428 13.8649 35.4498 15.9853C35.509 18.0211 35.4955 20.0601 35.4448 22.0959C35.4671 23.8484 35.4331 25.6024 35.3159 27.3514L35.3151 27.3517Z" fill="white"/>
<path d="M29.0014 6.56773C27.8866 6.9579 27.1853 8.2438 27.4964 9.39087C27.7949 10.6964 29.2873 11.5415 30.5641 11.1548C31.8301 10.8546 32.756 9.41078 32.3137 8.1445C31.9344 6.80675 30.2873 5.9778 29.0014 6.56744V6.56773Z" fill="white"/>
<path d="M25.2228 10.9249C23.1208 9.46943 20.4473 8.92314 17.93 9.31682C15.1479 9.74623 12.5541 11.3746 11.0374 13.758C9.59213 15.9737 9.12199 18.7997 9.79717 21.3598C10.4097 23.757 12.0008 25.8707 14.1042 27.1651C16.2044 28.4713 18.7982 28.9853 21.2344 28.536C24.1012 28.0644 26.7275 26.2779 28.1932 23.7655C29.4469 21.6483 29.8488 19.0361 29.2536 16.6456C28.6871 14.3248 27.2093 12.2501 25.2228 10.9252V10.9249ZM24.7307 22.6694C23.6264 24.1214 21.8873 25.0749 20.0654 25.214C17.0577 25.5567 13.9466 23.4972 13.2202 20.5335C12.7167 18.6659 13.1625 16.5724 14.3857 15.0726C15.3851 13.8172 16.8661 12.9777 18.4435 12.7111C21.4512 12.1684 24.7222 14.0038 25.6686 16.9403C26.3458 18.8472 25.9589 21.0695 24.7304 22.6691L24.7307 22.6694Z" fill="white"/>
</svg>
