<?xml version="1.0" encoding="UTF-8"?>
<svg id="_レイヤー_2" data-name="レイヤー 2" xmlns="http://www.w3.org/2000/svg" viewBox="0 0 348.22 177.96">
  <defs>
    <style>
      .cls-1 {
        fill: #000;
        stroke-width: 0px;
      }
    </style>
  </defs>
  <g id="_レイヤー_1-2" data-name="レイヤー 1">
    <g>
      <path class="cls-1" d="M.8,116.75l-.8-.6c.15-.2,14.79-19.64,35.62-33.53,9.07-6.05,27.65-16.7,50.2-20.08,18.19-2.73,35.09-1.71,50.22,3.02,14.19,4.43,26.96,11.3,29.6,12.76,1.2-2.95,7.34-17.72,14.82-30.54,7.8-13.37,25.28-31.66,45.23-40.21,6.23-2.67,29.05-10.99,61.27-6.03,20.61,3.17,39.04,14.64,44.2,18.08,5.95,3.97,16.93,12.94,17.04,13.03l-.63.77c-.11-.09-11.05-9.03-16.96-12.97-5.12-3.41-23.39-14.78-43.8-17.92-31.96-4.92-54.56,3.32-60.73,5.97-19.74,8.46-37.05,26.56-44.76,39.79-8.27,14.18-14.9,30.77-14.97,30.93l-.21.54-.5-.29c-.14-.08-14.14-8.03-29.9-12.96-14.99-4.68-31.74-5.69-49.78-2.98-22.36,3.35-40.8,13.92-49.8,19.92C15.49,97.25.95,116.56.8,116.75Z"/>
      <path class="cls-1" d="M283.97,54.84c.75-1.47,2.85-5.81,3.7-10.08,1.05-5.25,0-10.5-3.15-12.6-1.95-1.3-5.25-1.05-6.37,0-1.67,1.57-3.08,3.15-4.13,9.45-.57,3.39-.39,7.29-.2,9.58-.79-.08-1.6-.13-2.42-.13s-1.62.05-2.42.13c.19-2.29.36-6.19-.2-9.58-1.05-6.3-2.46-7.88-4.13-9.45-1.12-1.05-4.41-1.3-6.37,0-3.15,2.1-4.2,7.35-3.15,12.6.85,4.27,2.95,8.61,3.7,10.08-5.42,3.62-8.96,9.51-8.96,16.17,0,11.02,9.64,19.95,21.52,19.95s21.53-8.93,21.53-19.95c0-6.66-3.54-12.55-8.96-16.17Z"/>
      <g>
        <path class="cls-1" d="M78.17,112.36c3.37-5.9,7.13-8.12,13.49-8.12,4.83,0,7.97,1.46,10.04,4.75,1.46,2.22,1.99,4.9,1.99,9.58v15.86c0,7.2.38,7.74,5.59,7.89v1.69h-17.4v-1.69c2.53-.08,3.91-.38,4.52-1.15.46-.61.69-1.23.77-2.53.08-.84.23-3.68.23-4.21v-15.4c0-3.83-.38-6.51-1.23-8.28-1.23-2.68-3.52-4.06-6.74-4.06-3.6,0-6.51,1.69-8.66,5.13-1.61,2.53-2.61,6.21-2.61,9.35v13.26c0,7.2.38,7.74,5.59,7.89v1.69h-17.47v-1.69c5.13-.15,5.59-.77,5.59-7.89v-20.54c0-5.75-.92-6.9-5.29-6.9v-1.69l11.57-.84v7.89Z"/>
        <path class="cls-1" d="M120.31,109.37c3.22-3.29,8.05-5.13,13.33-5.13,11.19,0,18.54,7.89,18.54,19.92,0,12.8-7.36,20.84-19,20.84s-18.47-7.89-18.47-19.77c0-6.36,2.07-12.26,5.59-15.86ZM133.41,143.17c7.51,0,11.65-6.51,11.65-18.31s-4.29-18.85-11.8-18.85-11.42,6.51-11.42,18.24,4.21,18.93,11.57,18.93Z"/>
        <path class="cls-1" d="M160,120.1h16.93v4.21h-16.93v-4.21Z"/>
        <path class="cls-1" d="M195.32,133.13c0,4.52.23,6.51,1,7.59.77,1.07,1.99,1.61,3.75,1.61s3.14-.38,4.83-1.38l.69,1.99c-2.53,1.3-4.98,1.92-7.74,1.92-3.75,0-6.59-1.3-7.89-3.75-.84-1.53-1.07-3.22-1.07-8.89v-24.83h-4.83v-1.76c4.52-.38,6.82-3.37,7.97-10.57l3.53-1c-.15,3.29-.23,6.21-.23,11.26h9.2v2.07h-9.2v25.75Z"/>
        <path class="cls-1" d="M216.01,109.37c3.22-3.29,8.05-5.13,13.33-5.13,11.19,0,18.54,7.89,18.54,19.92,0,12.8-7.36,20.84-19,20.84s-18.47-7.89-18.47-19.77c0-6.36,2.07-12.26,5.59-15.86ZM229.12,143.17c7.51,0,11.65-6.51,11.65-18.31s-4.29-18.85-11.8-18.85-11.42,6.51-11.42,18.24,4.21,18.93,11.57,18.93Z"/>
      </g>
      <g>
        <path class="cls-1" d="M81.15,166.47c.02,1.6.16,2.52.53,3.47.67,1.71,1.8,2.54,3.47,2.54s2.89-.86,3.81-2.61l.53.3c-1.04,2.13-2.61,3.12-4.88,3.12-3.31,0-5.57-2.45-5.57-5.99,0-3.75,2.22-6.31,5.48-6.31,2.1,0,3.7,1.06,4.42,2.94.23.62.32,1.18.37,2.54h-8.16ZM87.3,165.85c-.02-1.22-.14-1.9-.44-2.57-.51-1.13-1.29-1.71-2.38-1.71s-2.03.62-2.66,1.8c-.35.67-.49,1.27-.62,2.47h6.1Z"/>
        <path class="cls-1" d="M94.58,169.71c0,1.36.07,1.97.3,2.29.23.32.6.49,1.13.49s.95-.12,1.46-.42l.21.6c-.76.39-1.5.58-2.33.58-1.13,0-1.99-.39-2.38-1.13-.25-.46-.32-.97-.32-2.68v-7.49h-1.46v-.53c1.36-.12,2.06-1.02,2.4-3.19l1.06-.3c-.05.99-.07,1.87-.07,3.4h2.77v.62h-2.77v7.77Z"/>
        <path class="cls-1" d="M101.28,166.47c.02,1.6.16,2.52.53,3.47.67,1.71,1.8,2.54,3.47,2.54s2.89-.86,3.81-2.61l.53.3c-1.04,2.13-2.61,3.12-4.88,3.12-3.31,0-5.57-2.45-5.57-5.99,0-3.75,2.22-6.31,5.48-6.31,2.1,0,3.7,1.06,4.42,2.94.23.62.32,1.18.37,2.54h-8.16ZM107.43,165.85c-.02-1.22-.14-1.9-.44-2.57-.51-1.13-1.29-1.71-2.38-1.71s-2.03.62-2.66,1.8c-.35.67-.49,1.27-.62,2.47h6.1Z"/>
        <path class="cls-1" d="M114.69,161.06c.05,1.16.07,1.46.07,1.94v.74c.76-1.76,2.01-2.75,3.38-2.75.99,0,1.76.62,1.76,1.43,0,.58-.49.95-1.23.95-.51,0-.72-.14-.86-.58-.14-.51-.28-.65-.65-.65-.6,0-1.25.51-1.73,1.39-.42.76-.62,1.71-.62,2.94v3.63c0,2.17.12,2.33,1.66,2.38v.51h-5.29v-.51c1.55-.05,1.69-.23,1.69-2.38v-6.2c0-1.73-.28-2.08-1.59-2.08v-.51l3.42-.25Z"/>
        <path class="cls-1" d="M124.21,163.44c1.02-1.78,2.15-2.45,4.07-2.45,1.46,0,2.4.44,3.03,1.43.44.67.6,1.48.6,2.89v4.79c0,2.17.12,2.33,1.69,2.38v.51h-5.25v-.51c.76-.02,1.18-.12,1.36-.35.14-.18.21-.37.23-.76.02-.25.07-1.11.07-1.27v-4.65c0-1.16-.12-1.96-.37-2.5-.37-.81-1.06-1.22-2.03-1.22-1.09,0-1.96.51-2.61,1.55-.49.76-.79,1.87-.79,2.82v4c0,2.17.12,2.33,1.69,2.38v.51h-5.27v-.51c1.55-.05,1.69-.23,1.69-2.38v-6.2c0-1.73-.28-2.08-1.6-2.08v-.51l3.49-.25v2.38Z"/>
        <path class="cls-1" d="M146.01,172.94c-.9.14-1.92.23-2.38.23-.69,0-.88-.37-.97-1.92-.37.42-.67.67-1.13.99-1.02.74-1.83.99-3.01.99-1.02,0-1.78-.23-2.36-.72-.62-.55-1.02-1.48-1.02-2.45,0-1.83,1.16-3,3.4-3.51,1.2-.28,2.43-.44,4.11-.55v-1.46c0-1.06-.09-1.62-.32-2.1-.3-.6-.95-.9-1.9-.9-1.53,0-2.31.69-2.4,2.13-.02.49-.07.65-.25.79-.16.12-.46.18-.81.18-.79,0-1.13-.21-1.13-.69,0-.83.6-1.66,1.57-2.22.88-.49,2.01-.74,3.38-.74,1.48,0,2.54.35,3.1,1.02.46.58.67,1.34.67,2.61q0,.07-.05,2.33l-.02,2.2-.02,1.06c0,.97.12,1.8.25,1.99s.42.25,1.29.25v.49ZM142.66,166.54c-2.06.19-2.96.37-3.88.83-1.02.49-1.55,1.41-1.55,2.63,0,1.46.79,2.45,1.94,2.45s2.38-.69,2.96-1.69c.37-.65.53-1.62.53-3.14v-1.09Z"/>
        <path class="cls-1" d="M147.6,172.48c1.53-.05,1.64-.23,1.64-2.38v-11.26c0-1.13-.09-1.69-.35-1.9-.16-.14-.51-.19-1.29-.21v-.51l3.7-.19c-.09,1.55-.14,3.4-.14,4.62v9.43c0,2.15.12,2.33,1.66,2.38v.51h-5.22v-.51Z"/>
        <path class="cls-1" d="M165.31,163.05c.88-1.36,2.17-2.06,3.79-2.06,2.96,0,4.74,2.2,4.74,5.83,0,1.8-.46,3.45-1.29,4.6-.83,1.13-2.24,1.78-3.81,1.78-1.36,0-2.15-.35-3.42-1.5v3.38c0,2.15.12,2.29,1.78,2.36v.53h-5.34v-.53c1.57-.05,1.69-.21,1.69-2.36v-11.17c0-1.73-.28-2.08-1.6-2.08v-.51l3.47-.25v1.99ZM168.55,172.58c2.1,0,3.14-1.85,3.14-5.5s-.97-5.43-2.94-5.43c-1.06,0-2.08.58-2.64,1.5-.6.99-.9,2.31-.9,4.04,0,3.58,1.13,5.39,3.33,5.39Z"/>
        <path class="cls-1" d="M179.25,163.47c1.09-1.78,2.22-2.47,4.12-2.47,1.69,0,2.82.58,3.38,1.67.28.58.42,1.55.42,2.82v4.62c0,2.15.12,2.33,1.66,2.38v.51h-5.25v-.51c1.57-.05,1.69-.21,1.69-2.38v-4.65c0-1.18-.12-2.03-.37-2.5-.37-.74-1.04-1.11-2.03-1.11-.92,0-1.73.32-2.29.9-.46.49-.86,1.18-1.09,1.9-.16.51-.23.97-.23,1.73v3.72c0,2.17.12,2.33,1.66,2.38v.51h-5.25v-.51c1.57-.05,1.69-.21,1.69-2.38v-11.26c0-1.96-.09-2.08-1.69-2.1v-.51l3.7-.19c-.09,1.76-.12,2.61-.12,4.62v2.8Z"/>
        <path class="cls-1" d="M192.17,162.54c.97-.99,2.43-1.55,4.02-1.55,3.38,0,5.59,2.38,5.59,6.01,0,3.86-2.22,6.29-5.73,6.29s-5.57-2.38-5.57-5.96c0-1.92.62-3.7,1.69-4.79ZM196.12,172.74c2.26,0,3.51-1.96,3.51-5.52s-1.29-5.69-3.56-5.69-3.44,1.96-3.44,5.5,1.27,5.71,3.49,5.71Z"/>
        <path class="cls-1" d="M207.17,169.71c0,1.36.07,1.97.3,2.29.23.32.6.49,1.13.49s.95-.12,1.46-.42l.21.6c-.76.39-1.5.58-2.33.58-1.13,0-1.99-.39-2.38-1.13-.25-.46-.32-.97-.32-2.68v-7.49h-1.46v-.53c1.36-.12,2.06-1.02,2.4-3.19l1.06-.3c-.05.99-.07,1.87-.07,3.4h2.77v.62h-2.77v7.77Z"/>
        <path class="cls-1" d="M213.41,162.54c.97-.99,2.43-1.55,4.02-1.55,3.38,0,5.59,2.38,5.59,6.01,0,3.86-2.22,6.29-5.73,6.29s-5.57-2.38-5.57-5.96c0-1.92.62-3.7,1.69-4.79ZM217.37,172.74c2.26,0,3.51-1.96,3.51-5.52s-1.29-5.69-3.56-5.69-3.44,1.96-3.44,5.5,1.27,5.71,3.49,5.71Z"/>
        <path class="cls-1" d="M225.43,169.34h.72c.09,1.09.25,1.64.65,2.15.6.83,1.46,1.25,2.52,1.25,1.57,0,2.52-.81,2.52-2.17,0-.53-.21-1.04-.55-1.34-.42-.35-.49-.37-2.59-1.29-2.5-1.09-3.26-1.92-3.26-3.49,0-.81.23-1.59.62-2.13.62-.83,1.71-1.32,2.87-1.32.6,0,.9.05,2.15.28.19.02.35.05.49.05.28,0,.65-.05,1.11-.16l-.12,3.65h-.76c-.05-2.06-1.06-3.28-2.75-3.28-1.43,0-2.36.81-2.36,2.06,0,.53.21.95.62,1.25.44.32.88.55,2.4,1.2,1.55.65,2.13.99,2.66,1.57.49.53.76,1.29.76,2.2,0,2.13-1.41,3.49-3.58,3.49-.65,0-.95-.05-2.31-.28-.32-.05-.6-.07-.86-.07s-.58.02-1.04.09l.09-3.7Z"/>
      </g>
    </g>
  </g>
</svg>