<svg xmlns="http://www.w3.org/2000/svg" viewBox="0 0 1280 100" width="100%">
  <path d="M 0 16 Q 8 16 16 10 Q 32 -2 48 10 Q 56 16 64 16 Q 72 16 80 10 Q 96 -2 112 10 Q 120 16 128 16 Q 136 16 144 10 Q 160 -2 176 10 Q 184 16 192 16 Q 200 16 208 10 Q 224 -2 240 10 Q 248 16 256 16 Q 264 16 272 10 Q 288 -2 304 10 Q 312 16 320 16 Q 328 16 336 10 Q 352 -2 368 10 Q 376 16 384 16 Q 392 16 400 10 Q 416 -2 432 10 Q 440 16 448 16 Q 456 16 464 10 Q 480 -2 496 10 Q 504 16 512 16 Q 520 16 528 10 Q 544 -2 560 10 Q 568 16 576 16 Q 584 16 592 10 Q 608 -2 624 10 Q 632 16 640 16 Q 648 16 656 10 Q 672 -2 688 10 Q 696 16 704 16 Q 712 16 720 10 Q 736 -2 752 10 Q 760 16 768 16 Q 776 16 784 10 Q 800 -2 816 10 Q 824 16 832 16 Q 840 16 848 10 Q 864 -2 880 10 Q 888 16 896 16 Q 904 16 912 10 Q 928 -2 944 10 Q 952 16 960 16 Q 968 16 976 10 Q 992 -2 1008 10 Q 1016 16 1024 16 Q 1032 16 1040 10 Q 1056 -2 1072 10 Q 1080 16 1088 16 Q 1096 16 1104 10 Q 1120 -2 1136 10 Q 1144 16 1152 16 Q 1160 16 1168 10 Q 1184 -2 1200 10 Q 1208 16 1216 16 Q 1224 16 1232 10 Q 1248 -2 1264 10 Q 1272 16 1280 16" fill="none" stroke="#ffbeaf" stroke-width="8" transform="translate(0, 40)"></path>
</svg>